# xmcd
#
# Track frame offsets:
#	150
#	9745
#	28630
#	43765
#	56367
#	74050
#	87615
#	100792
#	112080
#	125167
#
# Disc length: 1875 seconds
#
# Revision: 1
# Processed by: cddbd v1.5.2PL0 Copyright (c) Steve Scherf et al.
# Submitted via: EasyCDDAExtractor 8.2.3.1
#
DISCID=9107510a
DTITLE=Johnny Paycheck - The Difference In Me
DYEAR=1993
DGENRE=Country
TTITLE0=The Toast Of The Town
TTITLE1=The Old Violin
TTITLE2=There Lies The Difference
TTITLE3=Next Of Kin
TTITLE4=You Haven't Lived
TTITLE5=My Name's Not On The Sidewalk
TTITLE6=Memory Crossing
TTITLE7=Take This Job And Shove It
TTITLE8=The Waltz Of Angels
TTITLE9=Hold That Thought
EXTD=
EXTT0=
EXTT1=
EXTT2=
EXTT3=
EXTT4=
EXTT5=
EXTT6=
EXTT7=
EXTT8=
EXTT9=
PLAYORDER=
